# AST/ASF file generated using VICON BodyLanguage
# -----------------------------------------------
:version 1.10
:name VICON
:units
  mass 1.0
  length 0.45
  angle deg
:documentation
   .ast/.asf automatically generated from VICON data using
   VICON BodyBuilder and BodyLanguage model FoxedUp or BRILLIANT.MOD
:root
   order TX TY TZ RX RY RZ
   axis XYZ
   position 0 0 0  
   orientation 0 0 0 
:bonedata
  begin
     id 1 
     name lhipjoint
     direction 0.690799 -0.707083 0.151096 
     length 2.54797 
     axis 0 0 0  XYZ
  end
  begin
     id 2 
     name lfemur
     direction 0.34202 -0.939693 0  
     length 7.21646  
     axis 0 0 20  XYZ
    dof rx ry rz
    limits (-160.0 20.0)
           (-70.0 70.0)
           (-60.0 70.0)
  end
  begin
     id 3 
     name ltibia
     direction 0.34202 -0.939693 0   
     length 8.16759   
     axis 0 0 20   XYZ
    dof rx
    limits (-10.0 170.0)
  end
  begin
     id 4 
     name lfoot
     direction 0.0487203 -0.133858 0.989802   
     length 1.93375   
     axis -90 7.62852e-016 20   XYZ
    dof rx rz
    limits (-45.0 90.0)
           (-70.0 20.0)
  end
  begin
     id 5 
     name ltoes
     direction 1.53453e-011 -4.21783e-011 1   
     length 0.979747   
     axis -90 7.62852e-016 20   XYZ
    dof rx
    limits (-90.0 20.0)
  end
  begin
     id 6 
     name rhipjoint
     direction -0.694693 -0.703425 0.150315   
     length 2.56122  
     axis 0 0 0  XYZ 
  end
  begin
     id 7 
     name rfemur
     direction -0.34202 -0.939693 0   
     length 7.36786   
     axis 0 0 -20   XYZ
    dof rx ry rz
    limits (-160.0 20.0)
           (-70.0 70.0)
           (-70.0 60.0)
  end
  begin
     id 8 
     name rtibia
     direction -0.34202 -0.939693 0   
     length 8.07288   
     axis 0 0 -20   XYZ
    dof rx
    limits (-10.0 170.0)
 end
 begin
     id 9 
     name rfoot
     direction -0.0428397 -0.117701 0.992125   
     length 1.88295  
     axis -90 -7.62852e-016 -20   XYZ
    dof rx rz
    limits (-45.0 90.0)
           (-20.0 70.0)
  end
  begin
     id 10 
     name rtoes
     direction -1.53456e-011 -4.2187e-011 1   
     length 0.955578   
     axis -90 -7.62852e-016 -20   XYZ
    dof rx
    limits (-90.0 20.0)
  end
  begin
     id 11 
     name lowerback
     direction 0.0288145 0.999398 -0.0193241   
     length 1.92149   
     axis 0 0 0   XYZ
    dof rx ry rz
    limits (-20.0 45.0)
           (-30.0 30.0)
           (-30.0 30.0)
  end
  begin
     id 12 
     name upperback
     direction 0.0233784 0.998099 0.0570278   
     length 1.90435   
     axis 0 0 0   XYZ
    dof rx ry rz
    limits (-20.0 45.0)
           (-30.0 30.0)
           (-30.0 30.0)
  end
  begin
     id 13 
     name thorax
     direction 0.0096694 0.997833 0.0650817   
     length 1.9111   
     axis 0 0 0   XYZ
    dof rx ry rz
    limits (-20.0 45.0)
           (-30.0 30.0)
           (-30.0 30.0)
  end
  begin
     id 14 
     name lowerneck
     direction 0.00516803 0.999916 0.0118722   
     length 1.74664   
     axis 0 0 0   XYZ
    dof rx ry rz
    limits (-20.0 45.0)
           (-30.0 30.0)
           (-30.0 30.0)
  end
  begin
     id 15 
     name upperneck
     direction -0.0510851 0.996117 -0.071696   
     length 1.68498   
     axis 0 0 0   XYZ
    dof rx ry rz
    limits (-20.0 45.0)
           (-30.0 30.0)
           (-30.0 30.0)
  end
  begin
     id 16
     name head
     direction -0.019188 0.999436 -0.0275702  
     length 1.83483  
     axis 0 0 0   XYZ
    dof rx ry rz
    limits (-20.0 45.0)
           (-30.0 30.0)
           (-30.0 30.0)
  end
  begin
     id 17 
     name lclavicle
     direction 0.967006 0.248456 -0.0562957  
     length 3.39395  
     axis 0 0 0   XYZ
    dof ry rz
    limits (-20.0 10.0)
           (0.0 20.0)
  end
  begin
     id 18 
     name lhumerus
     direction 1 -4.48962e-011 -5.62711e-019   
     length 5.24318   
     axis 180 -30 -90   XYZ
    dof rx ry rz
    limits (-60.0 90.0)
           (-90.0 90.0)
           (-90.0 90.0)
  end
  begin
     id 19
     name lradius
     direction 1 -4.48966e-011 7.90625e-027   
     length 2.98999   
     axis 180 -30 -90   XYZ
    dof rx
    limits (-10.0 170.0)
  end
  begin
     id 20
     name lwrist
     direction 1 -4.48959e-011 1.61068e-026   
     length 1.49499   
     axis -9.31229e-015 90 90   XYZ
    dof ry
    limits (-180.0 0.0)
 end
  begin
     id 21 
     name lhand
     direction 1 -4.49017e-011 3.22136e-026   
     length 0.726745   
     axis -2.0555e-014 90 90   XYZ
    dof rx rz
    limits (-90.0 90.0)
           (-45.0 45.0)
  end
  begin
     id 22 
     name lfingers
     direction 1 -4.4898e-011 6.44272e-026   
     length 0.58592   
     axis -4.11101e-014 90 90   XYZ
    dof rx
    limits (0.0 90.0)
  end
  begin
     id 23
     name lthumb
     direction 0.707107 -6.34922e-011 0.707107   
     length 0.841268   
     axis -90 45 2.85299e-015   XYZ
    dof rx rz
    limits (-45.0 45.0)
           (-45.0 45.0)
  end
  begin
     id 24 
     name rclavicle
     direction -0.972232 0.230238 0.0419005   
     length 3.40416  
     axis 0 0 0   XYZ 
    dof ry rz
    limits (-10.0 20.0)
           (-20.0 0.0)
  end
  begin
     id 25 
     name rhumerus
     direction -1 -4.48976e-011 2.48487e-027  
     length 5.37045   
     axis 180 30 90   XYZ
    dof rx ry rz
    limits (-90.0 60.0)
           (-90.0 90.0)
           (-90.0 90.0)
  end
  begin
     id 26 
     name rradius
     direction -1 -4.48942e-011 7.87951e-027   
     length 2.92792   
     axis 180 30 90   XYZ
    dof rx
    limits (-10.0 170.0)
  end
  begin
     id 27 
     name rwrist
     direction -1 -4.48969e-011 1.61068e-026   
     length 1.46396   
     axis -9.31229e-015 -90 -90   XYZ
    dof ry
    limits (-180.0 0.0)
  end
  begin
     id 28
     name rhand
     direction -1 -4.49043e-011 3.22136e-026   
     length 0.784497   
     axis -2.0555e-014 -90 -90   XYZ
    dof rx rz
    limits (-90.0 90.0)
           (-45.0 45.0)
  end
  begin
     id 29
     name rfingers
     direction -1 -4.48823e-011 6.44272e-026   
     length 0.632482   
     axis -4.11101e-014 -90 -90   XYZ
    dof rx
    limits (0.0 90.0)
  end
  begin
     id 30
     name rthumb
     direction -0.707107 -6.34923e-011 0.707107   
     length 0.908121   
     axis -90 -45 -2.85299e-015   XYZ
    dof rx rz
    limits (-45.0 45.0)
           (-45.0 45.0)
  end
:hierarchy
  begin
    root lhipjoint rhipjoint lowerback
    lhipjoint lfemur
    lfemur ltibia
    ltibia lfoot
    lfoot ltoes
    rhipjoint rfemur
    rfemur rtibia
    rtibia rfoot
    rfoot rtoes
    lowerback upperback
    upperback thorax
    thorax lowerneck lclavicle rclavicle
    lowerneck upperneck
    upperneck head
    lclavicle lhumerus
    lhumerus lradius
    lradius lwrist
    lwrist lhand lthumb
    lhand lfingers
    rclavicle rhumerus
    rhumerus rradius
    rradius rwrist
    rwrist rhand rthumb
    rhand rfingers
  end

#!OML:ASF E:\Style6\Style6.ASF
:FULLY-SPECIFIED
:DEGREES
696
root 0.814528 17.8544 -0.43425 20.2078 -24.9579 1.38717
lowerback 13.6046 -3.22018 4.52705
upperback 1.71253 -3.65022 -0.830207
thorax -6.14883 -1.90551 -2.74232
lowerneck -6.05595 3.70732 2.82908
upperneck -1.68565 4.77573 -3.71024
head 0.660915 2.33671 -1.51208
rclavicle 5.01931e-014 3.00165e-014
rhumerus 7.12031 32.8353 -67.7108
rradius 81.9307
rwrist 3.32734
rhand 21.2819 -3.85607
rfingers 7.12502
rthumb 45.7273 -27.0633
lclavicle 5.01931e-014 3.00165e-014
lhumerus 14.3295 -26.0282 69.2108
lradius 50.7514
lwrist -22.3308
lhand -26.6375 19.1498
lfingers 7.12502
lthumb -0.0700073 49.1295
rfemur -43.0679 16.3932 7.87986
rtibia 26.9173
rfoot -0.779179 -7.99095
rtoes -22.4986
lfemur -34.2038 6.2356 -24.59
ltibia 30.9568
lfoot -9.22868 22.5821
ltoes -10.1813
697
root 0.810379 17.8542 -0.432015 20.3627 -24.884 1.27094
lowerback 13.6005 -3.17661 4.62491
upperback 1.67819 -3.57404 -0.77392
thorax -6.17885 -1.87102 -2.75209
lowerneck -6.33354 3.65522 2.92806
upperneck -1.5425 4.69713 -3.83331
head 0.757405 2.29216 -1.56547
rclavicle 4.80065e-014 -1.98785e-015
rhumerus 7.24307 32.4066 -67.6429
rradius 81.878
rwrist 3.74859
rhand 21.8317 -3.70952
rfingers 7.12502
rthumb 46.2375 -26.7045
lclavicle 4.80065e-014 -1.98785e-015
lhumerus 14.2238 -26.1014 69.4715
lradius 50.8198
lwrist -22.398
lhand -26.4583 19.0747
lfingers 7.12502
lthumb 0.103059 49.0544
rfemur -43.1383 16.4237 7.96319
rtibia 26.8655
rfoot -0.804931 -8.0738
rtoes -22.0371
lfemur -34.3115 6.19307 -24.4487
ltibia 30.9668
lfoot -9.31858 22.5782
ltoes -10.0905
698
root 0.805719 17.8542 -0.429257 20.5088 -24.8551 1.22531
lowerback 13.6029 -3.13422 4.6256
upperback 1.61168 -3.51349 -0.727844
thorax -6.24295 -1.84305 -2.71375
lowerneck -6.60999 3.60678 2.97336
upperneck -1.37526 4.62711 -3.89336
head 0.858371 2.25265 -1.58952
rclavicle -3.37934e-014 -2.40529e-014
rhumerus 7.2534 32.04 -67.6247
rradius 81.9242
rwrist 4.15436
rhand 22.3559 -3.64852
rfingers 7.12502
rthumb 46.7231 -26.4358
lclavicle -3.37934e-014 -2.40529e-014
lhumerus 14.0503 -26.1591 69.7409
lradius 50.8993
lwrist -22.3912
lhand -26.3155 18.9395
lfingers 7.12502
lthumb 0.24098 48.9191
rfemur -43.2381 16.48 7.94152
rtibia 26.8072
rfoot -0.839194 -8.19626
rtoes -21.2588
lfemur -34.4489 6.15049 -24.3864
ltibia 30.9891
lfoot -9.41316 22.5827
ltoes -9.70411
699
root 0.800937 17.8544 -0.427382 20.6369 -24.7952 1.19749
lowerback 13.6344 -3.08994 4.64763
upperback 1.55082 -3.44633 -0.689643
thorax -6.3184 -1.81257 -2.69599
lowerneck -6.94808 3.53702 2.98773
upperneck -1.14274 4.53062 -3.91482
head 0.988031 2.19953 -1.59596
rclavicle -1.21259e-014 6.75868e-015
rhumerus 7.23759 31.6015 -67.6148
rradius 81.982
rwrist 4.59543
rhand 22.7255 -3.57589
rfingers 7.12502
rthumb 47.0651 -26.2134
lclavicle -1.21259e-014 6.75868e-015
lhumerus 13.9353 -26.3292 69.9799
lradius 50.9823
lwrist -22.3505
lhand -26.1841 19.0437
lfingers 7.12502
lthumb 0.367919 49.0231
rfemur -43.3156 16.5235 7.90983
rtibia 26.7356
rfoot -0.826526 -8.29585
rtoes -21.141
lfemur -34.5864 6.08593 -24.3308
ltibia 31.0214
lfoot -9.46542 22.5668
ltoes -9.37553
700
root 0.797174 17.8557 -0.426285 20.7338 -24.6563 1.11256
lowerback 13.7531 -3.05732 4.71899
upperback 1.49876 -3.37973 -0.60923
thorax -6.43323 -1.78344 -2.65772
lowerneck -7.28367 3.47324 3.03083
upperneck -0.927238 4.44019 -3.97985
head 1.11494 2.1487 -1.62203
rclavicle 6.47044e-014 1.90833e-014
rhumerus 7.25955 31.1261 -67.6264
rradius 81.967
rwrist 5.11853
rhand 23.1133 -3.38353
rfingers 7.12502
rthumb 47.4235 -25.8609
lclavicle 6.47044e-014 1.90833e-014
lhumerus 13.8061 -26.5359 70.249
lradius 51.1099
lwrist -22.3393
lhand -25.9486 19.3031
lfingers 7.12502
lthumb 0.595399 49.282
rfemur -43.332 16.5308 7.98434
rtibia 26.6955
rfoot -0.778022 -8.4496
rtoes -21.3215
lfemur -34.6645 5.98838 -24.1943
ltibia 31.0261
lfoot -9.38816 22.5815
ltoes -9.58285
701
root 0.793446 17.857 -0.424056 20.8517 -24.5306 0.992885
lowerback 13.8887 -3.04148 4.7599
upperback 1.4066 -3.33428 -0.479259
thorax -6.59751 -1.76458 -2.54377
lowerneck -7.55228 3.43654 3.03218
upperneck -0.714989 4.39204 -4.08592
head 1.23144 2.11891 -1.65395
rclavicle 8.44835e-014 -5.80451e-014
rhumerus 7.2764 30.8047 -67.5999
rradius 81.9846
rwrist 5.50795
rhand 23.5255 -3.31097
rfingers 7.12502
rthumb 47.8041 -25.6147
lclavicle 8.44835e-014 -5.80451e-014
lhumerus 13.5191 -26.6135 70.6281
lradius 51.298
lwrist -22.2904
lhand -25.6608 19.537
lfingers 7.12502
lthumb 0.873306 49.5149
rfemur -43.3601 16.5127 8.11333
rtibia 26.6758
rfoot -0.689104 -8.5509
rtoes -22.0394
lfemur -34.7425 5.92943 -24.0426
ltibia 31.0262
lfoot -9.33323 22.5868
ltoes -9.94282
702
root 0.79111 17.857 -0.421882 20.9359 -24.4701 1.04655
lowerback 13.9795 -3.00799 4.67262
upperback 1.31784 -3.29238 -0.419841
thorax -6.73083 -1.74437 -2.43391
lowerneck -7.86948 3.40065 3.08941
upperneck -0.485969 4.34035 -4.21448
head 1.36467 2.08597 -1.70301
rclavicle 5.86415e-015 1.72943e-014
rhumerus 7.25803 30.3989 -67.6317
rradius 82.0278
rwrist 5.8999
rhand 23.9203 -3.34302
rfingers 7.12502
rthumb 48.1681 -25.477
lclavicle 5.86415e-015 1.72943e-014
lhumerus 13.278 -26.7076 70.9394
lradius 51.5122
lwrist -22.1719
lhand -25.5423 19.363
lfingers 7.12502
lthumb 0.987849 49.3404
rfemur -43.453 16.4736 8.03089
rtibia 26.6628
rfoot -0.733949 -8.58872
rtoes -21.8121
lfemur -34.8536 5.86398 -24.0893
ltibia 31.032
lfoot -9.22798 22.6059
ltoes -10.613
703
root 0.789111 17.8547 -0.419226 21.0605 -24.4114 1.0934
lowerback 13.9829 -2.95463 4.67216
upperback 1.25847 -3.22028 -0.416906
thorax -6.79022 -1.7112 -2.44364
lowerneck -8.22523 3.34722 3.20041
upperneck -0.278282 4.25772 -4.30128
head 1.49752 2.03785 -1.74966
rclavicle -1.83876e-014 -2.06736e-014
rhumerus 7.26364 29.835 -67.7275
rradius 82.0225
rwrist 6.36772
rhand 24.3229 -3.23256
rfingers 7.12502
rthumb 48.5388 -25.19
lclavicle -1.83876e-014 -2.06736e-014
lhumerus 13.1369 -26.9112 71.1446
lradius 51.7292
lwrist -22.1068
lhand -25.7542 18.8346
lfingers 7.12502
lthumb 0.783135 48.8129
rfemur -43.5909 16.4416 7.927
rtibia 26.6546
rfoot -0.82502 -8.62275
rtoes -21.0998
lfemur -35.0244 5.80019 -24.1297
ltibia 31.0688
lfoot -9.3017 22.5732
ltoes -10.1356
704
root 0.785986 17.8546 -0.417541 21.2024 -24.3324 1.02611
lowerback 14.0314 -2.89802 4.73472
upperback 1.19387 -3.12863 -0.373497
thorax -6.87982 -1.6703 -2.44797
lowerneck -8.50477 3.284 3.31682
upperneck -0.121356 4.16252 -4.42659
head 1.60184 1.98361 -1.8121
rclavicle -5.22307e-014 3.19049e-014
rhumerus 7.22913 29.2708 -67.8397
rradius 82.0141
rwrist 6.87147
rhand 24.7455 -3.04347
rfingers 7.12502
rthumb 48.9274 -24.8117
lclavicle -5.22307e-014 3.19049e-014
lhumerus 12.9624 -27.0648 71.4314
lradius 51.8953
lwrist -22.0649
lhand -25.7327 18.7777
lfingers 7.12502
lthumb 0.803901 48.756
rfemur -43.6898 16.4029 7.98134
rtibia 26.6489
rfoot -0.843304 -8.65551
rtoes -20.9013
lfemur -35.1944 5.80073 -24.0597
ltibia 31.1321
lfoot -9.31256 22.5423
ltoes -10.0827
